<svg id="acfb73bd-a9c9-479b-911e-c28e0512c751" data-name="Layer 1" xmlns="http://www.w3.org/2000/svg" xmlns:xlink="http://www.w3.org/1999/xlink" width="865.76" height="682.89" viewBox="0 0 865.76 682.89"><defs><clipPath id="a5adaa8b-1f91-4ae7-a6f2-7bf82ce57b76"><path d="M441.26,386.14a12.88,12.88,0,1,1-12.88-12.87h.06A12.87,12.87,0,0,1,441.26,386.14Z" fill="#fff" opacity="0.4"/></clipPath><clipPath id="f5ed1831-7a95-404d-8b83-17cfd7015ebf"><path d="M472.64,385a12.91,12.91,0,1,1-12.88-12.87A12.88,12.88,0,0,1,472.64,385Z" fill="#fff" opacity="0.35"/></clipPath></defs><path d="M247.13,650S72.87,576,83.85,497s122-21.43,143.91-93-59-165,14.42-230.3S383.23,170.55,429,157.37,471,42.53,575.28,40.64,766,102.77,727.33,286.33,807.57,490.6,824,556.5s-42,90.9-42,90.9Z" fill="#673AB7"/><path d="M247.13,650S72.87,576,83.85,497s122-21.43,143.91-93-59-165,14.42-230.3S383.23,170.55,429,157.37,471,42.53,575.28,40.64,766,102.77,727.33,286.33,807.57,490.6,824,556.5s-42,90.9-42,90.9Z" fill="#fff" opacity="0.7"/><path d="M324.93,571.92l-.14-.06-74.81-31-.1-.18-81.11-144,.07-.24,51.95-174.06.23-.11,205.92-97.49.25.12,207.71,99.3,56.61,173.47-.24.25-143.93,154-.23,0Zm-74.12-32,74.3,30.81,221.67-20L690.17,397.36,633.94,225l-207-99L221.77,223.21,170,396.53Z" fill="#673AB7"/><path d="M168.44,397.78l.4-1.35,52.87-177.15,4.71,105.5,0,.09-13.71,49.38Zm52.4-171.48L170.37,395.42l41.31-22,13.55-48.81Z" fill="#673AB7"/><path d="M250.73,542.18l-.85-1.51L168.6,396.36,212.47,373,259.19,483ZM170.22,396.84l79.84,141.74L258,483.13,211.89,374.67Z" fill="#673AB7"/><path d="M249.62,541.64l8.44-59.06,123.73-32.81Zm9.49-58.12-7.94,55.61,124.45-86.5Z" fill="#673AB7"/><path d="M225.31,326.34l-4.68-104.81L274,263.64Zm-3.39-102.29,4.42,99,46-59.24Z" fill="#673AB7"/><path d="M263.61,354.94,225,324.81l49-63.08Zm-37-30.33,36,28.11,9.66-87Z" fill="#673AB7"/><path d="M262.43,354.88l10.19-91.75.55,0,148.66,6.46Zm11.24-90.53-9.82,88.43L417.48,270.6Z" fill="#673AB7"/><path d="M217.23,224.05l210.32-99.58-1.86,65.15-.48.08Zm209.09-97.69-201,95.16,199.21-32.9Z" fill="#673AB7"/><path d="M597.71,353.85l-.85-.4-179-83.53,178-41.5v.73ZM421.45,270.3,596.51,352l-1.8-122.09Z" fill="#673AB7"/><path d="M691.84,398.63l-96.67-46,77-13.14ZM599,353.19l90.8,43.19-18.51-55.54Z" fill="#673AB7"/><path d="M545.93,553.37l50.78-201.29,95.11,45.24-.55.59ZM597.5,353.76,548.19,549.23,689.86,397.7Z" fill="#673AB7"/><path d="M595.25,229.76,424.51,189.58l1.86-65.08L636.51,225ZM425.72,188.65l169.6,39.91,37-4.3L427.5,126.34Z" fill="#673AB7"/><circle cx="690.74" cy="396.03" r="12.65" fill="#9e9e9e"/><circle cx="690.74" cy="396.03" r="10.8" fill="#673AB7"/><circle cx="633.42" cy="223.98" r="12.65" fill="#9e9e9e"/><circle cx="633.42" cy="223.98" r="10.8" fill="#673AB7"/><circle cx="220.37" cy="223.95" r="12.65" fill="#9e9e9e"/><circle cx="220.37" cy="223.95" r="10.8" fill="#673AB7"/><circle cx="169.03" cy="396.35" r="12.65" fill="#9e9e9e"/><circle cx="169.03" cy="396.35" r="10.8" fill="#673AB7"/><polygon points="402.45 247.91 426.5 263.12 449.63 247.91 426.5 197.99 402.45 247.91" fill="#673AB7"/><polygon points="402.45 252.47 426.5 267.08 449.63 251.56 425.89 295.69 402.45 252.47" fill="#673AB7"/><g opacity="0.2"><polygon points="402.45 247.91 426.5 263.12 449.63 247.91 426.5 197.99 402.45 247.91" fill="#fff"/><polygon points="402.45 252.47 426.5 267.08 449.63 251.56 425.89 295.69 402.45 252.47" fill="#fff"/></g><path d="M546.37,304V310a.35.35,0,0,1-.68.09l-1.4-5.92a5.43,5.43,0,0,0-1.85-2.94L532,292.73V324c0,4.9-5.77,8.87-12.89,8.87s-12.89-4-12.89-8.87,5.78-8.87,12.89-8.87a16.93,16.93,0,0,1,7.34,1.59V284a3.19,3.19,0,0,1,3.19-3.18,3.14,3.14,0,0,1,2.25.93,3.09,3.09,0,0,1,.94,2.25v2.12a2.76,2.76,0,0,0,.73,1.86l11.42,12.34A5.45,5.45,0,0,1,546.37,304Z" fill="#9e9e9e"/><polygon points="637.99 164.54 674.46 186.02 708.94 164.04 672.97 140.56 637.99 164.54" fill="#d1d3d4"/><polygon points="673.8 225.81 674.46 186.02 708.94 164.04 708.98 200.85 673.8 225.81" fill="#bcbec0"/><polygon points="637.99 164.54 638.46 203.75 673.8 225.81 674.46 186.02 637.99 164.54" fill="#a7a9ac"/><polygon points="394.65 45.39 431.12 66.88 465.6 44.89 429.62 21.41 394.65 45.39" fill="#d1d3d4"/><polygon points="430.46 106.67 431.12 66.88 465.6 44.89 465.64 81.7 430.46 106.67" fill="#bcbec0"/><polygon points="394.65 45.39 395.11 84.6 430.46 106.67 431.12 66.88 394.65 45.39" fill="#a7a9ac"/><polygon points="715.74 373.55 752.21 395.03 786.69 373.05 750.71 349.57 715.74 373.55" fill="#d1d3d4"/><polygon points="751.55 434.82 752.21 395.03 786.69 373.05 786.73 409.86 751.55 434.82" fill="#bcbec0"/><polygon points="715.74 373.55 716.2 412.76 751.55 434.82 752.21 395.03 715.74 373.55" fill="#a7a9ac"/><polygon points="145.94 161.69 182.42 183.18 216.89 161.19 180.92 137.71 145.94 161.69" fill="#d1d3d4"/><polygon points="181.75 222.97 182.42 183.18 216.89 161.19 216.94 198 181.75 222.97" fill="#bcbec0"/><polygon points="145.94 161.69 146.41 200.9 181.75 222.97 182.42 183.18 145.94 161.69" fill="#a7a9ac"/><polygon points="70.91 377.23 107.39 398.71 141.86 376.73 105.89 353.24 70.91 377.23" fill="#d1d3d4"/><polygon points="106.72 438.5 107.39 398.71 141.86 376.73 141.91 413.53 106.72 438.5" fill="#bcbec0"/><polygon points="70.91 377.23 71.38 416.44 106.72 438.5 107.39 398.71 70.91 377.23" fill="#a7a9ac"/><rect x="239.19" y="326.83" width="57.6" height="32.94" fill="#9e9e9e"/><rect x="238.99" y="319.37" width="57.8" height="7.46" fill="#9e9e9e"/><polygon points="238.99 326.83 241.68 326.83 246.45 319.37 238.99 319.37 238.99 326.83" fill="#673AB7"/><polygon points="253.1 326.87 257.63 319.37 266.75 319.37 261.99 327.04 253.1 326.87" fill="#673AB7"/><polygon points="273.5 326.77 278.04 319.32 287.16 319.32 282.39 326.93 273.5 326.77" fill="#673AB7"/><rect x="239.19" y="326.83" width="57.59" height="1.99" opacity="0.2"/><polygon points="263.93 336.32 263.93 351.68 275.43 343.81 263.93 336.32" fill="#673AB7"/><path d="M601,394.63V426a1.63,1.63,0,0,1-1.63,1.64H567.07a1.63,1.63,0,0,1-1.63-1.64V394.63a1.62,1.62,0,0,1,1.63-1.62h32.26A1.62,1.62,0,0,1,601,394.63Z" fill="#9e9e9e"/><path d="M601,424.73V426a1.63,1.63,0,0,1-1.64,1.64H583.54l1-12.16,3.27-3.51a1.46,1.46,0,0,1,2.18,0Z" fill="#673AB7"/><path d="M601,424.73V426a1.63,1.63,0,0,1-1.64,1.64H583.54l1-12.16,3.27-3.51a1.46,1.46,0,0,1,2.18,0Z" fill="#fff" opacity="0.2"/><circle cx="593.14" cy="402.2" r="2.19" fill="#673AB7"/><path d="M597.24,427.65H567.07a1.63,1.63,0,0,1-1.63-1.63V418l10-9.41a1.21,1.21,0,0,1,1.68,0Z" fill="#673AB7"/><path d="M527.39,185.72V217.1a1.62,1.62,0,0,1-1.62,1.64H493.5a1.62,1.62,0,0,1-1.62-1.64V185.72a1.62,1.62,0,0,1,1.62-1.62h32.27A1.61,1.61,0,0,1,527.39,185.72Z" fill="#9e9e9e"/><path d="M527.39,215.82v1.28a1.63,1.63,0,0,1-1.63,1.64H510l1-12.16,3.27-3.51a1.46,1.46,0,0,1,2.18,0Z" fill="#673AB7"/><path d="M527.39,215.82v1.28a1.63,1.63,0,0,1-1.63,1.64H510l1-12.16,3.27-3.51a1.46,1.46,0,0,1,2.18,0Z" fill="#fff" opacity="0.2"/><circle cx="519.57" cy="193.3" r="2.19" fill="#673AB7"/><path d="M523.67,218.74H493.5a1.63,1.63,0,0,1-1.62-1.62v-8.07l10-9.41a1.24,1.24,0,0,1,1.69,0Z" fill="#673AB7"/><circle cx="671.31" cy="339.99" r="6.63" fill="#9e9e9e"/><circle cx="272.13" cy="263.92" r="6.63" fill="#9e9e9e"/><circle cx="212.22" cy="375.66" r="6.63" fill="#9e9e9e"/><circle cx="251.94" cy="537.55" r="6.63" fill="#9e9e9e"/><circle cx="425.19" cy="190.08" r="6.63" fill="#9e9e9e"/><circle cx="596.84" cy="353.37" r="6.63" fill="#9e9e9e"/><circle cx="426.18" cy="125.67" r="12.65" fill="#9e9e9e"/><circle cx="426.18" cy="125.67" r="10.8" fill="#673AB7"/><path d="M266.1,427.54l113.75-1.46a8.43,8.43,0,0,1,8.53,8.42V623.74H299.13L275.54,516S258.24,448,266.1,427.54Z" fill="#9e9e9e"/><path d="M475.17,538.46S504,571,537.28,569.3l11.51-29.61s-28-11.92-45.24-29.2L493.68,506l-18.51,24.26Z" fill="#f7a48b"/><path d="M386,451.68a60.73,60.73,0,0,0-16.78,9,65.46,65.46,0,0,1-8.83,5.6c-9.93,5.17-23.81,11.17-29.52,13.59a4.37,4.37,0,0,0-2.66,4c-.26,17.19-.84,107.28,14.67,139.63l108.79,1.14,10.15-30.43-4.26-9.49,18.83-116.53a1,1,0,0,0-.76-1.09A190.72,190.72,0,0,1,427,450.73Z" fill="#673AB7"/><path d="M391.27,420.07s-.72,25.39-5.27,31.61c0,0-12.45,3.12-7.19,13.66,0,0,8.37,14,32.48,15.19a28.83,28.83,0,0,0,19.23-5.64c3.25-2.54,6.07-6,6.41-10.46a11.78,11.78,0,0,0-4.73-10.06,48.73,48.73,0,0,0-5.24-3.64l1.2-12.7-26.11-33.77-13.42-.48Z" fill="#f9b499"/><path d="M466.67,528.44s1.65,7.67,5.21,12.88c0,0,20.29-11,32.36-32.62,0,0-17.59-19.21-27.85-40.59Z" fill="#673AB7"/><path d="M466.67,528.44s1.65,7.67,5.21,12.88c0,0,20.29-11,32.36-32.62,0,0-17.59-19.21-27.85-40.59Z" opacity="0.2"/><path d="M334.93,554.92s11.41,35.54,32.6,68.47l81.19-.33s36.49,1.58,44.59-9c0,0,5.15-3.19,4.42-20.61,0,0,10.1,10.6,9,1.75,0,0,7.3,6.64,3.54-11.94,0,0,5.09,12.83,8.18,11.06,0,0,4,.88-.44-11.5,0,0-6.19-16.15-14.38-16.59l4.43-2.43,5.71,2.4a6.35,6.35,0,0,1,3.45,3.51c1.19,3,3.86,7.76,8.75,6.7,0,0,2.21-.89-1.1-4.21a49.1,49.1,0,0,1-4.21-8.71,6.49,6.49,0,0,0-2.5-3.35l-4.36-3.06a9.71,9.71,0,0,0-8.66-1.28c-7.6,2.54-21.73,7.62-21.41,10.21,0,0,0,4.2-2,5.53a5.28,5.28,0,0,0-2.23,4.73,6.37,6.37,0,0,1-.82,3.4c-1.33,2.26-3.5,7.26-3.81,16.2a198.85,198.85,0,0,1-60.39-.35,50.62,50.62,0,0,1-5.55-1.27c-4.39-1.25-13.63-3.69-19.21-3.69,0,0-12.16-43.13-17.25-47.33C372.47,543.26,342.93,553.17,334.93,554.92Z" fill="#f9b499"/><path d="M486.93,618.51a10.4,10.4,0,0,1-3.6.42,11.17,11.17,0,0,1-3.6-.78,8.5,8.5,0,0,1-3.06-2.1,7.7,7.7,0,0,1-1.77-3.19,13.34,13.34,0,0,0,2.31,2.62,10.35,10.35,0,0,0,2.9,1.75A20.15,20.15,0,0,0,486.93,618.51Z" fill="#f7a48b"/><path d="M484,585.38a15.8,15.8,0,0,1,8,2.2,20.55,20.55,0,0,1,1.76,1.16,15.92,15.92,0,0,1,1.57,1.39,13.72,13.72,0,0,1,2.46,3.35,33.71,33.71,0,0,0-3-2.77,21.89,21.89,0,0,0-3.3-2.26,26.71,26.71,0,0,0-3.6-1.77A34.29,34.29,0,0,0,484,585.38Z" fill="#f7a48b"/><path d="M488.4,577.28a16.52,16.52,0,0,1,3.79.86,18.08,18.08,0,0,1,3.54,1.65,12.3,12.3,0,0,1,3,2.54,7.11,7.11,0,0,1,1.66,3.54,10.49,10.49,0,0,0-2.23-3,16.26,16.26,0,0,0-3-2.22,32,32,0,0,0-3.32-1.79C490.75,578.33,489.59,577.78,488.4,577.28Z" fill="#f7a48b"/><path d="M491.1,569.67a21.92,21.92,0,0,1,9,1.79,14.72,14.72,0,0,1,3.94,2.48,9.11,9.11,0,0,1,2.55,3.83,12.7,12.7,0,0,0-3.05-3.23,19.58,19.58,0,0,0-3.84-2.17,36.64,36.64,0,0,0-4.19-1.53C494,570.42,492.59,570,491.1,569.67Z" fill="#f7a48b"/><path d="M492.33,563.54a13.31,13.31,0,0,1,3-.08,22.1,22.1,0,0,1,2.92.43,14.12,14.12,0,0,1,5.41,2.37l-2.83-.73c-.93-.22-1.86-.46-2.8-.66C496.12,564.43,494.24,564.06,492.33,563.54Z" fill="#f7a48b"/><path d="M726.14,479.08l8.5-25.81a8.22,8.22,0,0,0-7.79-10.79l-170.26-.38a17.71,17.71,0,0,0-16.68,11.68l-53.1,146.56a7.75,7.75,0,0,0,7.29,10.39H533l61.09-113.15Z" fill="#e6e7e8" opacity="0.75"/><path d="M602,619l-106.5-1a15,15,0,0,1-15-19.69l52.51-147.91a21.83,21.83,0,0,1,20.52-14.52l173.18-.41a15.47,15.47,0,0,1,14.71,20.35l-8.17,24.51Z" fill="none" stroke="#e6e7e8" stroke-miterlimit="10"/><polygon points="521.69 528.22 550.7 451.23 574.13 451.6 545.49 528.6 521.69 528.22" fill="#e6e7e8" opacity="0.75"/><polygon points="511.64 557.24 520.2 533.06 543.26 534.17 535.08 557.61 511.64 557.24" fill="#e6e7e8" opacity="0.75"/><ellipse cx="514.74" cy="585.65" rx="20.11" ry="14.73" transform="translate(-264.94 578.93) rotate(-48.19)" fill="#e6e7e8" opacity="0.75"/><path d="M269.24,440.75c.87-15.88-3.14-13.21-3.14-13.21-9.09-1.52-6.59,21-6.59,21s-1.95,32,9.18,65.34c0,0,14.73,46.7,14.17,64.22l6.4,46.43L302.6,624l-12-66.17-10.13-44c-.72-3.12-1.55-6.19-2.53-9.23C275,495.19,267.69,469.12,269.24,440.75Z" fill="#9e9e9e"/><path d="M269.24,440.75c.87-15.88-3.14-13.21-3.14-13.21-9.09-1.52-6.59,21-6.59,21s-1.95,32,9.18,65.34c0,0,14.73,46.7,14.17,64.22l6.4,46.43L302.6,624l-12-66.17-10.13-44c-.72-3.12-1.55-6.19-2.53-9.23C275,495.19,267.69,469.12,269.24,440.75Z" opacity="0.2"/><rect x="237.89" y="628.4" width="547.31" height="33.09" fill="#bcbec0"/><path d="M427,450.73l1-15.91-26.25-23.23S399,433,427,450.73Z" fill="#f7a48b"/><path d="M436.46,441.55c-18.81,2.52-37.2-18.78-41-47.6s8.23-54.21,27-56.73,37.17,18.78,41,47.59c0,.05,0,.1,0,.14.13,1.1.25,2.2.34,3.3C466.37,415.62,454.51,439.12,436.46,441.55Z" fill="#f9b499"/><path d="M464.4,351.47s27.94,17.88,1.12,17.21c0,0,2.51,10.62-2.63,12.41,0,0-.87-7-6.09-18.9l2-8.71Z" fill="#9e9e9e"/><path d="M464.4,351.47s27.94,17.88,1.12,17.21c0,0,2.51,10.62-2.63,12.41,0,0-.87-6.92-6.09-18.9l2-8.71Z" opacity="0.2"/><path d="M395.34,419.83S391.27,416,393,407.61l3.11-16.53s6.23,6.95,8.62,12c0,0,5.51,0,.24-13.17,0,0-4.31-7.19-1.91-11a27.75,27.75,0,0,0,3.83-15.57l-30.18-1s-1.87,14,8.2,50a12.54,12.54,0,0,0,2.33,4.64C388.81,418.93,391.48,420.89,395.34,419.83Z" fill="#9e9e9e"/><path d="M395.34,419.83S391.27,416,393,407.61l3.11-16.53s6.23,6.95,8.62,12c0,0,5.51,0,.24-13.17,0,0-4.31-7.19-1.91-11a27.75,27.75,0,0,0,3.83-15.57l-30.18-1s-1.87,14,8.2,50a12.54,12.54,0,0,0,2.33,4.64C388.81,418.93,391.48,420.89,395.34,419.83Z" opacity="0.2"/><path d="M415.65,386.89l-21.55,2.55-10.19,2s-7.52,2.85-6.43-4.79c.12-.86,11.84-1.4,18.41-1.72,7-.34,13.5-.35,19.56-.15C415.52,385.45,415.59,386.17,415.65,386.89Z" fill="#673AB7"/><path d="M472.44,387.24l-8.59,1c-.09-1.1-.21-2.2-.34-3.3,3,0,5.93,0,8.75.12C472.3,385.8,472.37,386.51,472.44,387.24Z" fill="#673AB7"/><path d="M441.26,386.14a12.88,12.88,0,1,1-12.88-12.87h.06A12.87,12.87,0,0,1,441.26,386.14Z" fill="#fff" opacity="0.4"/><g clip-path="url(#a5adaa8b-1f91-4ae7-a6f2-7bf82ce57b76)"><path d="M428.44,373.27l-11.32,19.12a12.88,12.88,0,0,1,11.26-19.12Z" fill="#fff" opacity="0.4"/></g><path d="M428.38,399.52a13.38,13.38,0,1,1,13.38-13.38A13.41,13.41,0,0,1,428.38,399.52Zm.06-25.75a12.38,12.38,0,1,0,12.32,12.37A12.4,12.4,0,0,0,428.44,373.77Z" fill="#673AB7"/><path d="M472.64,385a12.91,12.91,0,1,1-12.88-12.87A12.88,12.88,0,0,1,472.64,385Z" fill="#fff" opacity="0.35"/><g clip-path="url(#f5ed1831-7a95-404d-8b83-17cfd7015ebf)"><path d="M457,372.38l-8.14,19.36A12.89,12.89,0,0,1,457,372.38Z" fill="#fff" opacity="0.4"/></g><path d="M459.76,398.33a13.38,13.38,0,0,1-2.91-26.43,13.38,13.38,0,1,1,2.91,26.43Zm0-25.75a12.67,12.67,0,0,0-2.69.29A12.3,12.3,0,0,0,447.39,385a12.38,12.38,0,1,0,12.37-12.37Z" fill="#673AB7"/><rect x="441.09" y="384.71" width="5.97" height="1" fill="#673AB7"/><ellipse cx="394.27" cy="398.21" rx="8.62" ry="12.8" transform="translate(-163.79 347.25) rotate(-40.07)" fill="#f9b499"/><path d="M378.19,349.79s-6.88,13,4.34,19.12c1.27.26,6.37,2.3,20.65-3.57,0,0-6.63,7.65,9.94,3.57,0,0-18.36,9.18-11,12.24,0,0,5.86,3.06,36.71-17.85,0,0-2,10.2,3.56,6.89,0,0,7.4-8.92,10.2-15.55,0,0-2.55,18.1,6.38,5.35,0,0,21.41-28.3,3.82-28,0,0-55.57,0-80.81,12,0,0-2.44-7.08-7.93-7.22a1.52,1.52,0,0,0-1.6,1.44c-.06,1.46.57,4.11,4.25,8.09,0,0-6.54-2.41-6.5,1.1C370.24,347.34,369.7,349.3,378.19,349.79Z" fill="#9e9e9e"/><path d="M417.7,368.23a30,30,0,0,0,6.69-4.25,34.4,34.4,0,0,0,5.44-5.68c.41-.51.75-1.07,1.14-1.6l.56-.81L432,355l1-1.7c.28-.6.57-1.19.87-1.78l.44-.89.36-.92.73-1.85c.48-1.24.81-2.53,1.28-3.8-.21,1.32-.43,2.65-.73,4l-.58,1.94-.29,1-.38.94a29.29,29.29,0,0,1-3.94,7.11,27.5,27.5,0,0,1-5.83,5.67,28.63,28.63,0,0,1-3.46,2.12A19.4,19.4,0,0,1,417.7,368.23Z" opacity="0.2"/><path d="M436.91,362.19a23.54,23.54,0,0,0,4.19-4.09,26.34,26.34,0,0,0,3.13-4.84c.23-.42.4-.87.61-1.31s.38-.88.54-1.34l.5-1.36.39-1.4c.31-.92.43-1.89.66-2.85s.29-1.94.49-2.92c.06,1,.1,2,.09,3a24.7,24.7,0,0,1-.34,3,21.26,21.26,0,0,1-1.89,5.74,19.91,19.91,0,0,1-3.5,4.92A15.32,15.32,0,0,1,436.91,362.19Z" opacity="0.2"/><path d="M453.45,351.69c.22-1.25.41-2.47.59-3.69s.32-2.43.41-3.65.19-2.44.23-3.67.05-2.47.11-3.74a18,18,0,0,1,.84,7.51,19.59,19.59,0,0,1-.7,3.74A13.5,13.5,0,0,1,453.45,351.69Z" opacity="0.2"/><path d="M328,557.49s38.94-11.78,48.1-15.71c0,0-10.8-74.93-49.41-59.88,0,0-8.83.66-5.56,13.42C321.12,495.32,328.32,550.29,328,557.49Z" fill="#673AB7"/><path d="M328,557.49s38.94-11.78,48.1-15.71c0,0-10.8-74.93-49.41-59.88,0,0-8.83.66-5.56,13.42C321.12,495.32,328.32,550.29,328,557.49Z" opacity="0.2"/><path d="M528.64,616.55s-7.46,2.08-6.29-7.51l43.33-121.57s2.62-16,17.74-15.41l145.7.29s9.42-.45,6,8.5Z" fill="#673AB7"/><path d="M599.56,616.55H528.64a3.72,3.72,0,0,1-3.51-4.94l44.54-127.26a14.59,14.59,0,0,1,13.79-9.77l147.43.2a4.53,4.53,0,0,1,4.25,6.07L687.86,611.68a5.46,5.46,0,0,1-5.06,3.61Z" fill="#673AB7"/><path d="M599.56,616.55H528.64a3.72,3.72,0,0,1-3.51-4.94l44.54-127.26a14.59,14.59,0,0,1,13.79-9.77l147.43.2a4.53,4.53,0,0,1,4.25,6.07L687.86,611.68a5.46,5.46,0,0,1-5.06,3.61Z" opacity="0.2"/><polygon points="580.37 616.39 599.56 533.18 599.56 616.55 580.37 616.39" opacity="0.2"/><polygon points="599.56 533.18 599.22 624.27 686.91 624.27 685.89 533.86 599.56 533.18" fill="#9e9e9e"/><ellipse cx="514.74" cy="585.65" rx="16.01" ry="11.73" transform="translate(-264.94 578.93) rotate(-48.19)" fill="#e6e7e8" opacity="0.75"/><polygon points="312.32 589.36 275.52 589.9 274.18 566.16 313.65 566.43 312.32 589.36" fill="#673AB7"/><polygon points="277.38 611.23 279.52 625.1 307.54 625.22 309.12 610.16 277.38 611.23" fill="#673AB7"/><path d="M228.32,623.57H790.64a4.21,4.21,0,0,1,4.21,4.21v5.44a0,0,0,0,1,0,0H224.1a0,0,0,0,1,0,0v-5.44A4.21,4.21,0,0,1,228.32,623.57Z" fill="#d1d3d4"/><polygon points="313.65 566.43 274.18 566.16 276.05 556.83 311.52 556.83 313.65 566.43" fill="#673AB7"/><polygon points="275.78 612.57 272.58 585.63 314.99 585.63 311.79 612.83 275.78 612.57" fill="#673AB7"/><polygon points="275.78 612.57 272.58 585.63 314.99 585.63 311.79 612.83 275.78 612.57" opacity="0.2"/><rect x="270.18" y="563.23" width="48" height="6.13" fill="#673AB7"/><rect x="270.18" y="563.23" width="48" height="6.13" fill="#fff" opacity="0.2"/></svg>